<svg id="Слой_4" data-name="Слой 4" xmlns="http://www.w3.org/2000/svg" viewBox="0 0 202.42 216.21"><defs><style>.cls-1{stroke:#000;stroke-miterlimit:10;}</style></defs><title>cup</title><path d="M578.92,394.07a39.41,39.41,0,0,0-4.7-16c-5-9.08-13.38-13.5-23.84-14.06-6.83-.37-7.09-.91-7.56-7.74a74.36,74.36,0,0,0-1.21-10.89,7.48,7.48,0,0,0-3.35-4.46c-4.91-2.6-8.87,0-8.78,5.9.13,9.61.57,19.21,1.19,28.79a12.31,12.31,0,0,1,.41,6.59c0,.26,0,.52,0,.78a12.73,12.73,0,0,1,.08,4.31,12.35,12.35,0,0,1-.11,1.82,12.29,12.29,0,0,1-.41,6.56,12.93,12.93,0,0,1-.17,1.41c-.41,28.17-6,55.67-10.57,83.31q-4.73,28.58-8.79,57.26c-.59,4.12-2,5.74-6.28,5.68-14.66-.2-29.33-.08-44-.08v0q-21,0-42,0c-8.46,0-8.37-.07-9.68-8.29-5.25-33-10.84-66-15.74-99.13-2-13.31-2.47-26.83-3.68-40.26l-.25-15.87a2.75,2.75,0,0,1,.11-.41c0-.61,0-1.29,0-2.08,0-2.5.09-5,.22-7.49.4-7.65.85-15.3,1.25-22.95.19-3.74-1.57-6.06-5.28-6.66-3.86-.62-6,1.39-6.81,5a36.9,36.9,0,0,0-.83,5.43A407.22,407.22,0,0,0,382,447.55c5.49,33.83,10.47,67.75,15.47,101.66.76,5.11,3.53,6.75,8.09,6.78,11,0,22,.14,33,.13q38,0,76-.18c6.07,0,7.94-1.79,8.73-7.84.17-1.32.25-2.65.43-4,2.14-16.17,4.33-32.33,6.43-48.5.45-3.49,1.72-5.37,5.73-4.95a110,110,0,0,0,11.49.09c18.12,0,31.35-12.67,31.77-30.75.26-10.82,0-21.65,0-32.48C579.13,416.38,579.63,405.19,578.92,394.07ZM549.4,478a64.35,64.35,0,0,1-7.48.07c-7.48-.3-8.26-1.25-7.08-8.8,1.59-10.19,3.82-20.32,4.8-30.56,1.81-18.86,3.08-37.78,4.16-56.7.25-4.57,1.78-5.41,6-5.33,7.53.14,16.62,7.08,16.09,16.3-.65,11.28-.16,22.63-.16,33.95h.36c0,11,0,22,0,33C566.11,469.93,559.42,477.28,549.4,478Z" transform="translate(-376.88 -339.92)"/><line class="cls-1" x1="154.25" y1="31.82" x2="154.11" y2="59.09"/></svg>