<svg id="Слой_3" data-name="Слой 3" xmlns="http://www.w3.org/2000/svg" viewBox="0 0 22.11 43.31"><title>drop</title><path d="M512.93,477.57c-7.13-.74-12.45-6.62-10.83-13.41,1.35-5.72,4.19-11.07,6.1-16.68,1.2-3.49,1.81-7.19,2.87-10.74.28-.94,1.27-1.66,1.93-2.48.68.61,1.76,1.09,2,1.84,2.87,9,5.64,18,8.38,27,1.36,4.46.19,8.38-3.46,11.15C517.91,475.82,515.28,476.51,512.93,477.57Zm.66-28.06-1.11-.06c-1.54,5.13-3.43,10.18-4.48,15.4-.68,3.39,1.4,6,5.13,5.79,3.55-.18,4.89-2.89,4.25-6.05C516.36,459.52,514.88,454.54,513.59,449.51Z" transform="translate(-501.81 -434.26)"/></svg>