<svg id="Слой_2" data-name="Слой 2" xmlns="http://www.w3.org/2000/svg" viewBox="0 0 77.2 77.1"><title>handle</title><path d="M363,606.65c-21-.12-38.69-18.13-38.54-39.2.15-20.71,17.41-38,37.84-37.9,22.52.1,39.57,17,39.36,39C401.48,589,383.41,606.76,363,606.65Zm-.15-8.1a30.57,30.57,0,0,0,30.87-31.16,30.17,30.17,0,0,0-20.07-28.31c-5.09-1.83-6.28-1.08-6.47,4.18-.12,3.16.39,6.46-.39,9.43-.5,1.92-2.84,3.36-4.36,5-1.45-1.57-3.62-2.92-4.18-4.76-.84-2.79-.5-5.93-.78-8.91-.54-5.9-1.66-6.53-7.08-4.14-13.54,6-20.44,20-17.26,35.11C335.93,588.25,348.93,598.55,362.86,598.55Z" transform="translate(-324.47 -529.55)"/></svg>