<svg id="Слой_1" data-name="Слой 1" xmlns="http://www.w3.org/2000/svg" viewBox="0 0 459.8 494.78"><defs><style>.cls-1{fill:#fff;}</style></defs><title>mixer</title><polyline class="cls-1" points="202.22 170.89 80.72 199.39 30.72 224.18 4.07 266.21 30.72 461.39 36.36 489.39 396.72 486.89 396.72 238.89 434.22 247.21 455.72 243.25 451.69 232.39 434.72 220.39 394.22 208.89 394.72 182.89 379.72 167.89 362.22 161.57 358.47 41.89 373.22 16.89 332.72 5.39 236.11 8.39 216.22 14.89 229.9 36.95 229.9 169.89"/><path d="M-352.12,437.34H-526.06c-10.76,0-11.58-.61-13-11.18q-9-67.31-17.9-134.65c-2.25-17-4.78-34-6.37-51-2-21.43,0-42.37,11.89-61.15,7.25-11.49,16.89-20.5,29.49-26.08,45.51-20.14,92-37.29,141.24-45.82,10.45-1.81,21.19-2,31.81-2.66,3.59-.22,5-1.32,5-5-.11-37.82,0-75.64-.26-113.46,0-2.23-1.54-4.95-3.2-6.57-9.3-9.09-10.06-22.36-1.14-29.89A14.21,14.21,0,0,1-341-53.48c18.91-1.47,37.84-3.53,56.77-3.59,24.45-.08,48.91,1.51,73.36,2.44,2,.07,3.94.63,5.92.87,8,1,13.52,5,15.16,13,1.69,8.29-.73,15.35-7.44,21a9.08,9.08,0,0,0-3.15,6c-.08,37.49.16,75,.09,112.46,0,4.86,1.81,6.27,6.33,6.57,17.67,1.17,28,12.11,28.45,29.7.06,2.66.17,5.33.26,8,.26,7.87.27,7.82,8.07,9.73C-147.62,155-138,157-128.63,160c11.27,3.61,18.66,11.87,23.42,22.51,2,4.51,1.1,6.54-3.65,7.72-7.92,2-15.89,3.71-23.88,5.36a5.56,5.56,0,0,1-4.19-.7c-7.21-6.26-16.52-5.08-24.86-7.21-3.5-.9-3.29,2.25-3.3,4.62q-.06,27-.13,54l-.3,168.45c0,5.48-.69,11-.66,16.46,0,5-2.74,6.26-7,6.28-12.49.06-25,.22-37.48.23H-352.12Zm-18.94-165.77h0V167.1c0-6.71-.17-7-6.82-5-22.94,6.93-46,13.64-68.69,21.23-34.13,11.4-67.67,24.41-100.13,40.06-3.08,1.49-4.66,3.26-4.3,6.84.5,5,.35,10,1,15q8.26,64.4,16.71,128.76c1.14,8.79,1.11,8.86,10.19,8.86q73,0,146,.1c4.83,0,6.25-1.55,6.22-6.33C-371.12,341.55-371.06,306.56-371.06,271.57Zm192.6-.95h.46q0-53.73.05-107.45c0-2.7-.13-4.46-3.57-4.42q-26.49.34-53,.35c-3.17,0-3.93,1.2-3.95,4.11-.07,11.33-1.09,22.7-.37,34,1.06,16.55-19.11,34-38.8,27-9.13-3.26-21-14.81-19.91-27.13,1-11.06-.3-22.29-.23-33.45,0-3.7-1.3-4.48-4.65-4.45-16.66.13-33.33.22-50,0-4.64-.08-5.48,1.64-5.48,5.8,0,46.48-.27,93-.28,139.45q0,34.72.6,69.46c.14,8.94.45,9,9.45,9q81.72,0,163.45.1c4.78,0,6.3-1.44,6.28-6.29C-178.54,341.27-178.46,306-178.46,270.62ZM-213.7,44c0-18.32-.26-36.65.15-55,.13-5.67-2.34-6.65-7-6.95-34.77-2.31-69.53-3-104.3.08-4.11.36-5.8,1.71-5.76,6.08q.42,56,.47,112c0,3.19,1.1,4.4,4.39,4.39q53.47-.07,107,.08c3.77,0,5.21-1.1,5.16-5.19C-213.85,81-213.72,62.5-213.7,44ZM-549.29,213.17c2.36-.84,3.74-1.28,5.08-1.81,33.8-13.2,67.37-27,101.46-39.42,21.87-8,44.48-13.9,66.81-20.57,3.63-1.08,5.18-2.76,5-6.65-.29-5-.1-10,0-15,.31-11.31.31-11.5-10.9-9.31-47.28,9.27-92.42,25.33-136.28,45.2-11.24,5.1-19.18,13.69-25,24.27A46,46,0,0,0-549.29,213.17Zm281.76,179.38v.57c-28.32,0-56.65.1-85-.1-4.24,0-5.51,1.36-5.45,5.36.09,6.82,0,13.66-.36,20.48-.26,4.56,1.84,5.83,5.94,5.81,10.16-.07,20.32.08,30.48.08,45.82,0,91.64-.12,137.46,0,4.53,0,6.23-1.17,6.08-5.91-.23-7.48.12-15,.43-22.47.11-2.85-.87-3.84-3.69-3.84Q-224.57,392.61-267.53,392.55Zm-183,0h0c-24.94,0-49.88.08-74.83-.08-4.32,0-5.57,1.31-4.79,5.53,1.3,7,2.33,14.12,3.2,21.22.45,3.73,2.21,5.08,5.87,5.08q72.93.12,145.87.39c3.4,0,4.19-1.75,4.19-4.72,0-7.66-.17-15.34.3-23,.24-3.85-1.17-4.49-4.47-4.48-25.12.1-50.23.06-75.35.06ZM-247.73,161h.28c0-12.81-.13-25.63.07-38.44.06-3.47-.92-4.68-4.44-4.63-10.82.17-21.64.19-32.45,0-3.58-.07-4.57,1.27-4.56,4.65.09,24.95-.07,49.9.1,74.86.07,11.8,8.37,19.23,20.75,19.2,11.79,0,20.1-7.81,20.22-19.2C-247.63,185.3-247.73,173.16-247.73,161Zm-25-193.17.06,1.12c6.32,0,12.66-.27,19,.06,14.95.77,29.89,1.89,44.83,2.73,5.67.31,7.67-1.86,8.39-7.48.69-5.31-2.3-6.86-6.63-7.15-15.27-1.06-30.53-2.23-45.8-3-28-1.36-55.89.27-83.75,3-5.78.56-7.46,3-6.46,8.72.89,5.14,3.2,6.29,10.15,5.82,20-1.36,40.09-2.56,60.17-3.82Zm-54.82,149.68V118H-353.5c-2.29,0-4.37,0-4.33,3.29.11,7.82-.1,15.65.24,23.46,0,1.23,2.27,3.39,3.51,3.41,17.31.2,34.63.11,51.94.1,2.68,0,4.43-.73,4.38-4-.12-7.49-.08-15,.07-22.47.06-3.2-1.08-4.42-4.38-4.35C-310.56,117.64-319.06,117.52-327.55,117.52Zm119.07,30.75v.36h26c2.2,0,4.64.17,4.52-3.1-.2-5.32-.12-10.68-.87-15.93a13.54,13.54,0,0,0-13.29-11.39c-14.14-.19-28.28-.09-42.42-.24-3.09,0-4.08,1.22-4,4.16.16,7.15.31,14.31.1,21.46-.12,3.87,1.43,4.83,5,4.75C-225.12,148.13-216.8,148.27-208.48,148.27Zm43.26,20.33c0,9.61,0,9.56,9.56,11.67,5.52,1.22,11.45,1.73,16.38,4.2,7.3,3.65,13.87,1.15,20.72-.31,3.9-.84,4.49-3.07,2.16-6.11-4.37-5.71-9.87-9.91-16.9-11.72-7.41-1.91-14.86-3.66-22.33-5.33C-165.2,158.84-165.22,158.9-165.22,168.6Z" transform="translate(564.01 57.07)"/><path class="cls-1" d="M-491,96.5" transform="translate(564.01 57.07)"/></svg>